# xmcd
#
# Track frame offsets: 
#        150
#        19313
#        38382
#        60867
#        81893
#        103182
#        119179
#        130921
#        155075
#        171205
#        194059
#        219648
#
# Disc length: 3254 seconds
#
# Revision: 0
# Processed by: cddbd v1.5.1PL0 Copyright (c) Steve Scherf et al.
# Submitted via: ExactAudioCopy v0.95a4
#
DISCID=ac0cb40c
DTITLE=Catfish and the One Eyed Jacks - The Way You Move
DYEAR=2002
DGENRE=Blues
TTITLE0=Move With It
TTITLE1=Ain't Losing No Sleep
TTITLE2=Sailing Boat
TTITLE3=Sweet Intoxication
TTITLE4=The Way You Move
TTITLE5=Walkin' On Down
TTITLE6=The Whole Thing Is Crazy
TTITLE7=Slow and Easy
TTITLE8=Shake It Loose
TTITLE9=Your a Friend of Mine
TTITLE10=The Mess Around
TTITLE11=I'll Give You Love
EXTD=
EXTT0=
EXTT1=
EXTT2=
EXTT3=
EXTT4=
EXTT5=
EXTT6=
EXTT7=
EXTT8=
EXTT9=
EXTT10=
EXTT11=
PLAYORDER=
